<svg id="Layer_1" enable-background="new 0 0 512 512" viewBox="0 0 512 512" xmlns="http://www.w3.org/2000/svg"><path d="m322.48 160.16c0-8.81 6.4-16.27 15.18-18.72v-5.54c0-3.31 2.69-6 6-6s6.01 2.69 6.01 6v5.42c4.74 1.21 8.96 3.89 11.85 7.66 2.01 2.63 1.51 6.4-1.12 8.41s-6.4 1.51-8.41-1.12c-1.76-2.31-4.78-3.68-8.06-3.68-5.12 0-9.45 3.47-9.45 7.58 0 4.72 2.21 5.93 10.99 8.21 7.72 2.01 19.39 5.04 19.39 18.94 0 8.81-6.4 16.27-15.18 18.72v7.08c0 3.31-2.69 6-6 6s-6.01-2.69-6.01-6v-6.95c-4.74-1.21-8.96-3.89-11.85-7.66-2.01-2.63-1.51-6.4 1.12-8.41s6.4-1.51 8.41 1.12c1.76 2.31 4.78 3.68 8.06 3.68 5.12 0 9.45-3.47 9.45-7.58 0-3.93-1.56-5.03-10.41-7.33-7.95-2.08-19.97-5.2-19.97-19.83zm-44.87 13.57c0-36.42 29.63-66.06 66.06-66.06 36.42 0 66.06 29.63 66.06 66.06s-29.63 66.06-66.06 66.06c-36.42 0-66.06-29.63-66.06-66.06zm12 0c0 29.81 24.25 54.06 54.06 54.06s54.06-24.25 54.06-54.06-24.25-54.06-54.06-54.06-54.06 24.25-54.06 54.06zm204.85 84.71-2.06 3.56c-2.54 4.39-6.64 7.53-11.55 8.85-1.64.44-3.31.66-4.97.66-3.29 0-6.54-.86-9.46-2.55l-15.35-8.86v127.12h2.79c10.68 0 19.37 8.69 19.37 19.37s-8.69 19.37-19.37 19.37h-419.49c-10.68 0-19.37-8.69-19.37-19.37s8.69-19.37 19.37-19.37h2.79v-233.03c0-16.35 13.31-29.66 29.66-29.66h204.29c15.79-23.22 42.42-38.5 72.56-38.5 30.13 0 56.76 15.28 72.56 38.5h5.19c16.35 0 29.66 13.3 29.66 29.66v57.24l36.42 21.03c4.39 2.54 7.53 6.64 8.85 11.55s.64 10.03-1.89 14.43zm-71.35-121.82c5.29 11.28 8.25 23.86 8.25 37.12 0 8.44-1.2 16.6-3.44 24.33l11.15 6.43v-50.31c0-9.16-7.01-16.72-15.96-17.57zm-155.13 37.11c0 41.74 33.96 75.7 75.7 75.7s75.7-33.96 75.7-75.7-33.96-75.7-75.7-75.7c-41.75.01-75.7 33.96-75.7 75.7zm185.88 225.49h-419.49c-4.07 0-7.37 3.31-7.37 7.37s3.31 7.37 7.37 7.37h419.49c4.07 0 7.37-3.31 7.37-7.37s-3.3-7.37-7.37-7.37zm-14.79-146.05-32.27-18.63c-15.96 16.57-38.36 26.89-63.13 26.89-48.36 0-87.7-39.34-87.7-87.7 0-13.29 2.98-25.9 8.29-37.2h-197.44c-9.74 0-17.66 7.92-17.66 17.66v233.03h389.91zm45.69-6.06c-.49-1.82-1.64-3.33-3.26-4.26l-57.76-33.35c-2.5 5.56-5.56 10.82-9.11 15.7l57.79 33.37c1.61.93 3.51 1.18 5.32.69 1.82-.49 3.33-1.64 4.26-3.26l2.06-3.56c.94-1.62 1.18-3.51.7-5.33zm-410.3 80.26v-64.81c0-3.31 2.69-6 6-6h15.62c3.31 0 6 2.69 6 6v64.81c0 3.31-2.69 6-6 6h-15.62c-3.31 0-6-2.68-6-6zm12-6h3.62v-52.81h-3.62zm23.92 6v-88.23c0-3.31 2.69-6 6-6h15.62c3.31 0 6 2.69 6 6v88.23c0 3.31-2.69 6-6 6h-15.62c-3.31 0-6-2.68-6-6zm12-6h3.62v-76.23h-3.62zm23.91 6v-112.43c0-3.31 2.69-6 6-6h15.62c3.31 0 6 2.69 6 6v112.43c0 3.31-2.69 6-6 6h-15.62c-3.31 0-6-2.68-6-6zm12-6h3.62v-100.43h-3.62zm23.92 6v-151.47c0-3.31 2.69-6 6-6h15.62c3.31 0 6 2.69 6 6v151.47c0 3.31-2.69 6-6 6h-15.62c-3.31 0-6-2.68-6-6zm12-6h3.62v-139.47h-3.62zm30.7 16.4h-165.53c-3.31 0-6 2.69-6 6s2.69 6 6 6h165.53c3.31 0 6-2.69 6-6s-2.69-6-6-6zm13.7-146.18h9.31c3.31 0 6-2.69 6-6s-2.69-6-6-6h-9.31c-3.31 0-6 2.69-6 6s2.69 6 6 6zm0 22.98h14.71c3.31 0 6-2.69 6-6s-2.69-6-6-6h-14.71c-3.31 0-6 2.69-6 6s2.69 6 6 6zm0 22.98h27.14c3.31 0 6-2.69 6-6s-2.69-6-6-6h-27.14c-3.31 0-6 2.69-6 6s2.69 6 6 6zm0 22.98h45.5c3.31 0 6-2.69 6-6s-2.69-6-6-6h-45.5c-3.31 0-6 2.69-6 6s2.69 6 6 6zm160.87 10.98h-160.87c-3.31 0-6 2.69-6 6s2.69 6 6 6h160.87c3.31 0 6-2.69 6-6s-2.68-6-6-6zm0 22.98h-160.87c-3.31 0-6 2.69-6 6s2.69 6 6 6h160.87c3.31 0 6-2.69 6-6s-2.68-6-6-6zm0 22.99h-160.87c-3.31 0-6 2.69-6 6s2.69 6 6 6h160.87c3.31 0 6-2.69 6-6s-2.68-6-6-6z"/></svg>