<svg id="Layer_1" enable-background="new 0 0 512 512" viewBox="0 0 512 512" xmlns="http://www.w3.org/2000/svg"><path d="m349.8 178.3v.2 108.7c0 9.8-9.2 18-24 23.2-12.3 4.4-29.2 7.1-47.7 7.1-24.4 37.3-77 42.9-108.6 11.3-27.5-27.5-27.5-72 0-99.5 9.6-9.6 21.9-16.4 35.7-19.2v-31.7c0-9.9 9.2-18 24-23.2 26.9-9.5 69.6-9.5 96.6 0 14.8 5.3 23.9 13.3 24 23.1zm-155.4 117c-.4-4.1 2.6-7.7 6.7-8.1s7.7 2.6 8.1 6.7c.5 5.8 11.6 9.2 18 4 1.5-1.2 2.4-2.8 2.4-4.5 0-4.9-5.8-6-11.6-7.1-11.8-2.3-23.7-4.6-23.7-21.7 0-10.3 7.8-18.2 17.5-20.9v-3.1c0-4.1 3.3-7.5 7.6-7.5 4.2 0 7.5 3.4 7.4 7.6l-.1 3c9.8 2.6 17.6 10.5 17.6 20.9 0 4.1-3.3 7.4-7.4 7.4s-7.4-3.3-7.4-7.4c0-6.1-11.5-9.8-18-4.5-1.5 1.2-2.4 2.8-2.4 4.5 0 4.9 5.8 6 11.6 7.1 11.8 2.3 23.7 4.6 23.7 21.7 0 10.3-7.9 18.3-17.7 20.9v3.1c0 4.1-3.3 7.5-7.4 7.5s-7.5-3.3-7.5-7.5v-3.1c-9-2.5-16.5-9.5-17.4-19zm91.3 7.2c13.8-.7 26.1-2.9 35.3-6.1 8.7-3.1 14-6.4 14-9.2v-17c-11.7 6.3-28.9 9.6-45.3 10.7-.2 7.6-1.6 14.8-4 21.6zm2.8-36.3c13.3-.9 25.1-3.2 33.8-6.5 7.8-3 12.6-6.1 12.6-8.7v-17c-13.7 7.3-34.8 10.7-54.1 11.1 3.7 6.4 6.3 13.5 7.7 21.1zm-18.7-36.1c18 .9 37.8-1.4 51.1-6.2 8.7-3.1 14-6.4 14-9.2v-17c-27.6 14.8-87.2 14.8-114.8 0v11c19.6.3 37.1 8.4 49.7 21.4zm-56.1-6.2c-.1 0-.1 0-.2 0-27.8 2.8-49.5 26.6-49.5 55.1 0 30.6 24.8 55.5 55.4 55.5s55.4-24.8 55.4-55.5c0-32.8-28.3-58.4-61.1-55.1zm206.7 233.9h-29.7c-2.4 0-4.4-1.1-5.8-2.7l-20.2-22.5c-60.5 34.6-134.7 36.7-197.1 5.6-3.7-1.9-5.2-6.4-3.1-10.3l24-48.3c1.8-3.7 6.3-5.2 9.9-3.3 59 29.4 130.6 13.6 172-37.9 12.5-15.6 21.8-34 26.7-54 .9-3.9 4.8-6.3 8.6-5.5l53.4 10.4c4.2.8 6.9 5 5.7 9.4-7.1 30.4-20.9 58.2-39.6 81.9-13.5 17.1-29.7 32-47.8 44.2l16.6 18.2h26.4c5.6-19 29.7-25.4 43.9-11.2 16.6 16.6 4.8 45-18.6 45-11.9-.1-22.1-7.9-25.3-19zm-65.9-36.5-10.7-11.9c-2.7-3-2.5-7.7.5-10.5 3.1-2.7 7.7-2.5 10.5.6l12.6 14c39.5-25.9 68.6-65.4 81.2-111.2l-38.9-7.6c-19.5 66-80.3 111.1-148.8 111.1-21.6 0-42.8-4.5-62.3-13.1l-17.6 35.4c55.4 25.1 120 22.5 173.5-6.8zm91.1 40.5c10.2 0 15.3-12.4 8.1-19.6s-19.6-2.1-19.6 8.1c.1 6.4 5.2 11.5 11.5 11.5zm-381.6-367.1v40.1l14.4 12.9c28.4-50.4 77-87.7 134.6-101.1 4-.9 7.9 1.5 9 5.8l13.7 52.2c1 4.1-1.5 8.2-5.8 9.1-31.5 7.1-59.1 24.9-78.6 49.3-47.9 59.9-38.7 147.3 20.6 196 3.1 2.6 3.6 7.1 1.2 10.3l-33.3 43c-2.6 3.3-7.3 3.8-10.6 1.2-74.9-60.5-99-164.8-57.7-252.1l-19.4-17.5c-1.7-1.4-2.7-3.4-2.7-5.8v-43.4c-19-5.6-25.4-29.7-11.2-43.9 16.6-16.5 45-4.8 45 18.6-.3 11.8-8.2 22-19.2 25.3zm25.6 63.1 16.4 14.7c3 2.7 3.3 7.5.5 10.5-2.7 3.1-7.4 3.3-10.5.6l-13.3-12c-34.7 78.2-14 169.5 49.8 225.4l24.3-31.4c-60.8-54.8-68.5-147.6-17.2-211.8 20.1-25.1 47.8-43.9 79.7-52.7l-10-38.3c-51.5 14.1-94.6 48.8-119.7 95zm-33.1-99.9c-10.2 0-15.3 12.4-8.1 19.6s19.6 2.1 19.6-8.1c0-6.3-5.1-11.5-11.5-11.5zm373.7 11.2h-26.4l-14.4 16c49.8 38.7 81 98.8 81 165.5 0 4.1-3.3 7.5-7.4 7.5h-54.4c-4.1 0-7.5-3.3-7.5-7.5 0-77.5-62.8-140.3-140.3-140.3-4.1 0-7.4-3.3-7.4-7.4v-54.4c0-4.1 3.3-7.4 7.4-7.4 43.1 0 83.1 13 116.4 35.3l17.5-19.4c1.4-1.7 3.5-2.8 5.8-2.8h29.7c5.6-19 29.7-25.4 43.9-11.2 16.5 16.6 4.7 44.9-18.6 44.9-11.9 0-22.1-7.8-25.3-18.8zm-50.9 27-14.8 16.4c-2.7 3-7.5 3.3-10.5.5-3.1-2.7-3.3-7.4-.6-10.5l13.6-15.1c-28.6-18.7-62.5-30.1-98.9-31.4v39.5c79.8 3.8 143.8 67.8 147.5 147.5h39.5c-2-59.2-30.9-112.3-75.8-146.9zm84.3-42.6c-7.2-7.2-19.6-2.1-19.6 8.1s12.4 15.3 19.6 8.1c4.4-4.4 4.4-11.7 0-16.2zm-142.7 115.8c-23.7-8.4-63-8.4-86.7 0-8.7 3.1-14 6.4-14 9.2s5.4 6.2 14 9.2c23.7 8.4 63 8.4 86.7 0 8.7-3.1 14-6.4 14-9.2.1-2.9-5.3-6.2-14-9.2z"/></svg>