<svg id="Layer_1" viewBox="0 0 64 64" xmlns="http://www.w3.org/2000/svg" data-name="Layer 1"><path d="m47 62h-8c-.55 0-1-.45-1-1v-22h-3c-.38 0-.73-.22-.9-.57s-.12-.76.12-1.06l8-10c.38-.47 1.18-.47 1.56 0l8 10c.24.3.29.71.12 1.06s-.52.57-.9.57h-3v22c0 .55-.45 1-1 1zm-7-2h6v-22c0-.55.45-1 1-1h1.92l-5.92-7.4-5.92 7.4h1.92c.55 0 1 .45 1 1z"/><path d="m13 54c-3.98 0-8-1.37-8-4 0-3.36 6.62-4.62 11.2-3.69.54.11.89.64.78 1.18s-.64.89-1.18.78c-.87-.18-1.82-.27-2.8-.27-3.72 0-6 1.29-6 2s2.28 2 6 2 6-1.29 6-2c0-.55.45-1 1-1s1 .45 1 1c0 2.63-4.02 4-8 4z"/><path d="m13 58c-3.98 0-8-1.37-8-4v-4h2v4c0 .71 2.28 2 6 2s6-1.29 6-2v-4h2v4c0 2.63-4.02 4-8 4z"/><path d="m13 62c-3.98 0-8-1.37-8-4v-4h2v4c0 .71 2.28 2 6 2s6-1.29 6-2v-4h2v4c0 2.63-4.02 4-8 4z"/><path d="m27 46c-3.98 0-8-1.37-8-4 0-3.64 7.73-4.78 12.29-3.42.53.16.83.71.67 1.24s-.71.83-1.24.67c-1.09-.32-2.37-.5-3.71-.5-3.72 0-6 1.29-6 2s2.28 2 6 2 6-1.29 6-2c0-.55.45-1 1-1s1 .45 1 1c0 2.63-4.02 4-8 4z"/><path d="m27 50c-3.98 0-8-1.37-8-4v-4h2v4c0 .71 2.28 2 6 2s6-1.29 6-2v-4h2v4c0 2.63-4.02 4-8 4z"/><path d="m27 54c-3.98 0-8-1.37-8-4v-4h2v4c0 .71 2.28 2 6 2s6-1.29 6-2v-4h2v4c0 2.63-4.02 4-8 4z"/><path d="m27 58c-3.98 0-8-1.37-8-4v-4h2v4c0 .71 2.28 2 6 2s6-1.29 6-2v-4h2v4c0 2.63-4.02 4-8 4z"/><path d="m27 62c-3.98 0-8-1.37-8-4v-4h2v4c0 .71 2.28 2 6 2s6-1.29 6-2v-4h2v4c0 2.63-4.02 4-8 4z"/><path d="m56 62h-5c-.55 0-1-.45-1-1s.45-1 1-1h5c.55 0 1-.45 1-1v-54c0-.55-.45-1-1-1h-40c-.55 0-1 .45-1 1v38c0 .55-.45 1-1 1s-1-.45-1-1v-38c0-1.65 1.35-3 3-3h40c1.65 0 3 1.35 3 3v54c0 1.65-1.35 3-3 3z"/><path d="m29 29c-6.07 0-11-4.93-11-11s4.93-11 11-11 11 4.93 11 11c0 .55-.45 1-1 1s-1-.45-1-1c0-4.96-4.04-9-9-9s-9 4.04-9 9 4.04 9 9 9c3.58 0 6.82-2.12 8.25-5.4.22-.5.81-.74 1.32-.52s.74.81.52 1.32c-1.75 4.01-5.71 6.6-10.08 6.6z"/><path d="m39 19h-10c-.55 0-1-.45-1-1v-10c0-.55.45-1 1-1s1 .45 1 1v9h9c.55 0 1 .45 1 1s-.45 1-1 1z"/><path d="m48 11h-5c-.55 0-1-.45-1-1s.45-1 1-1h5c.55 0 1 .45 1 1s-.45 1-1 1z"/><path d="m53 16h-10c-.55 0-1-.45-1-1s.45-1 1-1h10c.55 0 1 .45 1 1s-.45 1-1 1z"/><path d="m53 21h-10c-.55 0-1-.45-1-1s.45-1 1-1h10c.55 0 1 .45 1 1s-.45 1-1 1z"/><path d="m53 26h-10c-.55 0-1-.45-1-1s.45-1 1-1h10c.55 0 1 .45 1 1s-.45 1-1 1z"/></svg>